<svg id="Capa_1" enable-background="new 0 0 512 512" height="512" viewBox="0 0 512 512" width="512" xmlns="http://www.w3.org/2000/svg"><g><g><path d="m397 410c-26.191 0-47.5-21.309-47.5-47.5v-75c0-9.649-7.851-17.5-17.5-17.5h-34.5c-8.284 0-15-6.716-15-15s6.716-15 15-15h34.5c26.191 0 47.5 21.309 47.5 47.5v75c0 9.649 7.851 17.5 17.5 17.5s17.5-7.851 17.5-17.5v-297.5c0-8.284 6.716-15 15-15s15 6.716 15 15v297.5c0 26.191-21.309 47.5-47.5 47.5z" fill="#485959"/><path d="m487 0c-27.139 0-50.114 18.117-57.5 42.887-7.386-24.77-30.361-42.887-57.5-42.887h-10c-8.284 0-15 6.716-15 15v10c0 33.137 26.863 60 60 60h45c33.137 0 60-26.863 60-60v-10c0-8.284-6.716-15-15-15z" fill="#b2fa09"/><path d="m497 0h-10c-27.139 0-50.114 18.117-57.5 42.887v42.113h22.5c33.137 0 60-26.863 60-60v-10c0-8.284-6.716-15-15-15z" fill="#70da40"/></g><g><g><g><path d="m295 500h-250c-8.284 0-15-6.716-15-15v-430c0-30.327 24.673-55 55-55h170c30.327 0 55 24.673 55 55v430c0 8.284-6.716 15-15 15z" fill="#b2fa09"/></g><path d="m255 0h-85v500h125c8.284 0 15-6.716 15-15v-430c0-30.327-24.673-55-55-55z" fill="#70da40"/><g><path d="m325 512h-310c-8.284 0-15-6.716-15-15v-20c0-19.33 15.67-35 35-35h270c19.33 0 35 15.67 35 35v20c0 8.284-6.716 15-15 15z" fill="#fff5f5"/></g><path d="m305 442h-135v70h155c8.284 0 15-6.716 15-15v-20c0-19.33-15.67-35-35-35z" fill="#e1ebf0"/><g><path d="m235 210h-130c-8.284 0-15-6.716-15-15v-120c0-8.284 6.716-15 15-15h130c8.284 0 15 6.716 15 15v120c0 8.284-6.716 15-15 15z" fill="#fff36c"/></g><path d="m235 60h-65v150h65c8.284 0 15-6.716 15-15v-120c0-8.284-6.716-15-15-15z" fill="#ffcd00"/><circle cx="170" cy="255" fill="#ff6c6c" r="15"/><path d="m170 240v30c8.284 0 15-6.716 15-15s-6.716-15-15-15z" fill="#ff2828"/><circle cx="235" cy="255" fill="#ffcd00" r="15"/></g></g></g></svg>