<?xml version="1.0" encoding="utf-8"?>
<!-- Generator: Adobe Illustrator 25.0.0, SVG Export Plug-In . SVG Version: 6.00 Build 0)  -->
<svg version="1.1" id="Capa_1" xmlns="http://www.w3.org/2000/svg" xmlns:xlink="http://www.w3.org/1999/xlink" x="0px" y="0px"
	 viewBox="0 0 512 512" style="enable-background:new 0 0 512 512;" xml:space="preserve">
<style type="text/css">
	.st0{display:none;fill:#F6B545;}
	.st1{display:none;fill:#FFCB5B;}
	.st2{display:none;}
	.st3{display:inline;fill:#F19920;}
	.st4{fill:#C97629;}
	.st5{fill:#B06328;}
	.st6{fill:#FFCB5B;}
	.st7{fill:#FFE278;}
	.st8{fill:#F6B545;}
	.st9{fill:#F19920;}
	.st10{fill:#FFE27A;}
	.st11{fill:#E78825;}
</style>
<path class="st0" d="M267.6,500.4h-256c-7,0-11.6-4.7-11.6-11.6v-23.3c0-7,4.7-11.6,11.6-11.6h256c7,0,11.6,4.7,11.6,11.6v23.3
	C279.3,495.7,274.6,500.4,267.6,500.4z"/>
<path class="st1" d="M221.1,465.5H0l0,0c0-7,4.7-11.6,11.6-11.6h209.5V465.5z"/>
<g class="st2">
	<path class="st3" d="M221.1,465.5v11.6c0,7-4.7,11.6-11.6,11.6H0c0,7,4.7,11.6,11.6,11.6h197.8h58.2c7,0,11.6-4.7,11.6-11.6v-23.3
		L221.1,465.5L221.1,465.5z"/>
	<path class="st3" d="M34.9,488.7v-17.5c0-3.5-2.3-5.8-5.8-5.8s-5.8,2.3-5.8,5.8v17.5"/>
	<path class="st3" d="M69.8,488.7v-17.5c0-3.5-2.3-5.8-5.8-5.8c-3.5,0-5.8,2.3-5.8,5.8v17.5"/>
	<path class="st3" d="M104.7,488.7v-17.5c0-3.5-2.3-5.8-5.8-5.8s-5.8,2.3-5.8,5.8v17.5"/>
	<path class="st3" d="M139.6,488.7v-17.5c0-3.5-2.3-5.8-5.8-5.8s-5.8,2.3-5.8,5.8v17.5"/>
	<path class="st3" d="M174.5,488.7v-17.5c0-3.5-2.3-5.8-5.8-5.8s-5.8,2.3-5.8,5.8v17.5"/>
	<path class="st3" d="M209.5,488.7v-17.5c0-3.5-2.3-5.8-5.8-5.8s-5.8,2.3-5.8,5.8v17.5"/>
</g>
<path class="st0" d="M290.9,453.8h-256c-7,0-11.6-4.7-11.6-11.6v-23.3c0-7,4.7-11.6,11.6-11.6h256c7,0,11.6,4.7,11.6,11.6v23.3
	C302.5,449.2,297.9,453.8,290.9,453.8z"/>
<path class="st1" d="M244.4,418.9H23.3l0,0c0-7,4.7-11.6,11.6-11.6h209.5V418.9z"/>
<g class="st2">
	<path class="st3" d="M244.4,418.9v11.6c0,7-4.7,11.6-11.6,11.6H23.3c0,7,4.7,11.6,11.6,11.6h197.8h58.2c7,0,11.6-4.7,11.6-11.6
		v-23.3L244.4,418.9L244.4,418.9z"/>
	<path class="st3" d="M58.2,442.2v-17.5c0-3.5-2.3-5.8-5.8-5.8s-5.8,2.3-5.8,5.8v17.5"/>
	<path class="st3" d="M93.1,442.2v-17.5c0-3.5-2.3-5.8-5.8-5.8s-5.8,2.3-5.8,5.8v17.5"/>
	<path class="st3" d="M128,442.2v-17.5c0-3.5-2.3-5.8-5.8-5.8s-5.8,2.3-5.8,5.8v17.5"/>
	<path class="st3" d="M162.9,442.2v-17.5c0-3.5-2.3-5.8-5.8-5.8s-5.8,2.3-5.8,5.8v17.5"/>
	<path class="st3" d="M197.8,442.2v-17.5c0-3.5-2.3-5.8-5.8-5.8s-5.8,2.3-5.8,5.8v17.5"/>
	<path class="st3" d="M232.7,442.2v-17.5c0-3.5-2.3-5.8-5.8-5.8s-5.8,2.3-5.8,5.8v17.5"/>
</g>
<path class="st0" d="M314.2,360.7h-256c-7,0-11.6-4.7-11.6-11.6v-23.3c0-7,4.7-11.6,11.6-11.6h256c7,0,11.6,4.7,11.6,11.6v23.3
	C325.8,356.1,321.2,360.7,314.2,360.7z"/>
<path class="st1" d="M267.6,325.8H46.5l0,0c0-7,4.7-11.6,11.6-11.6h209.5V325.8z"/>
<g class="st2">
	<path class="st3" d="M267.6,325.8v11.6c0,7-4.7,11.6-11.6,11.6H46.5c0,7,4.7,11.6,11.6,11.6H256h58.2c7,0,11.6-4.7,11.6-11.6v-23.3
		L267.6,325.8L267.6,325.8z"/>
	<path class="st3" d="M81.5,349.1v-17.5c0-3.5-2.3-5.8-5.8-5.8s-5.8,2.3-5.8,5.8v17.5"/>
	<path class="st3" d="M116.4,349.1v-17.5c0-3.5-2.3-5.8-5.8-5.8s-5.8,2.3-5.8,5.8v17.5"/>
	<path class="st3" d="M151.3,349.1v-17.5c0-3.5-2.3-5.8-5.8-5.8s-5.8,2.3-5.8,5.8v17.5"/>
	<path class="st3" d="M186.2,349.1v-17.5c0-3.5-2.3-5.8-5.8-5.8s-5.8,2.3-5.8,5.8v17.5"/>
	<path class="st3" d="M221.1,349.1v-17.5c0-3.5-2.3-5.8-5.8-5.8s-5.8,2.3-5.8,5.8v17.5"/>
	<path class="st3" d="M256,349.1v-17.5c0-3.5-2.3-5.8-5.8-5.8s-5.8,2.3-5.8,5.8v17.5"/>
</g>
<path class="st0" d="M290.9,314.2h-256c-7,0-11.6-4.7-11.6-11.6v-23.3c0-7,4.7-11.6,11.6-11.6h256c7,0,11.6,4.7,11.6,11.6v23.3
	C302.5,309.5,297.9,314.2,290.9,314.2z"/>
<path class="st1" d="M244.4,279.3H23.3l0,0c0-7,4.7-11.6,11.6-11.6h209.5V279.3z"/>
<g class="st2">
	<path class="st3" d="M244.4,279.3v11.6c0,7-4.7,11.6-11.6,11.6H23.3c0,7,4.7,11.6,11.6,11.6h197.8h58.2c7,0,11.6-4.7,11.6-11.6
		v-23.3L244.4,279.3L244.4,279.3z"/>
	<path class="st3" d="M58.2,302.5v-17.5c0-3.5-2.3-5.8-5.8-5.8s-5.8,2.3-5.8,5.8v17.5"/>
	<path class="st3" d="M93.1,302.5v-17.5c0-3.5-2.3-5.8-5.8-5.8s-5.8,2.3-5.8,5.8v17.5"/>
	<path class="st3" d="M128,302.5v-17.5c0-3.5-2.3-5.8-5.8-5.8s-5.8,2.3-5.8,5.8v17.5"/>
	<path class="st3" d="M162.9,302.5v-17.5c0-3.5-2.3-5.8-5.8-5.8s-5.8,2.3-5.8,5.8v17.5"/>
	<path class="st3" d="M197.8,302.5v-17.5c0-3.5-2.3-5.8-5.8-5.8s-5.8,2.3-5.8,5.8v17.5"/>
	<path class="st3" d="M232.7,302.5v-17.5c0-3.5-2.3-5.8-5.8-5.8s-5.8,2.3-5.8,5.8v17.5"/>
</g>
<path class="st0" d="M267.6,407.3h-256c-7,0-11.6-4.7-11.6-11.6v-23.3c0-7,4.7-11.6,11.6-11.6h256c7,0,11.6,4.7,11.6,11.6v23.3
	C279.3,402.6,274.6,407.3,267.6,407.3z"/>
<path class="st1" d="M221.1,372.4H0l0,0c0-7,4.7-11.6,11.6-11.6h209.5V372.4z"/>
<g class="st2">
	<path class="st3" d="M221.1,372.4V384c0,7-4.7,11.6-11.6,11.6H0c0,7,4.7,11.6,11.6,11.6h197.8h58.2c7,0,11.6-4.7,11.6-11.6v-23.3
		L221.1,372.4L221.1,372.4z"/>
	<path class="st3" d="M34.9,395.6v-17.5c0-3.5-2.3-5.8-5.8-5.8s-5.8,2.3-5.8,5.8v17.5"/>
	<path class="st3" d="M69.8,395.6v-17.5c0-3.5-2.3-5.8-5.8-5.8c-3.5,0-5.8,2.3-5.8,5.8v17.5"/>
	<path class="st3" d="M104.7,395.6v-17.5c0-3.5-2.3-5.8-5.8-5.8s-5.8,2.3-5.8,5.8v17.5"/>
	<path class="st3" d="M139.6,395.6v-17.5c0-3.5-2.3-5.8-5.8-5.8s-5.8,2.3-5.8,5.8v17.5"/>
	<path class="st3" d="M174.5,395.6v-17.5c0-3.5-2.3-5.8-5.8-5.8s-5.8,2.3-5.8,5.8v17.5"/>
	<path class="st3" d="M209.5,395.6v-17.5c0-3.5-2.3-5.8-5.8-5.8s-5.8,2.3-5.8,5.8v17.5"/>
</g>
<path class="st4" d="M453.8,424.7c-15.1-10.5-23.3-27.9-23.3-46.5c0-71-27.9-138.5-78-188.5l-50-50v-34.9l40.7-51.2
	c3.5-4.7,5.8-10.5,5.8-16.3c0-14-11.6-25.6-25.6-25.6h-44.2l-11.6,23.3l-23.3-23.3h-55.9c-14,0-25.6,11.6-25.6,25.6
	c0,5.8,2.3,11.6,5.8,16.3l40.7,51.2v34.9l-50,50c-50,50-78,117.5-78,188.5l0,0c0,18.6-8.1,36.1-23.3,46.5s-23.3,27.9-23.3,46.5l0,0
	c0,16.3,12.8,29.1,29.1,29.1h384c16.3,0,29.1-12.8,29.1-29.1l0,0C477.1,452.7,468.9,435.2,453.8,424.7z"/>
<path class="st5" d="M453.8,424.7c-15.1-11.6-23.3-29.1-23.3-47.7c1.2-73.3-32.6-142-83.8-194.3l-44.2-43.1v-34.9l40.7-51.2
	c7-8.1,8.1-19.8,2.3-30.3c-4.7-8.1-14-11.6-23.3-11.6c-8.1,0-12.8,9.3-10.5,16.3c1.2,2.3,2.3,5.8,2.3,9.3c0,5.8-2.3,11.6-5.8,16.3
	l-40.7,51.2v34.9h-58.2l-11.6,11.6h81.5l43.1,43.1C370,242,388.7,307.2,384,373.5c-1.2,19.8,7,38.4,22.1,50c1.2,1.2,2.3,2.3,3.5,2.3
	c17.5,18.6,2.3,50-24.4,50H36.1c2.3,12.8,14,23.3,27.9,23.3h337.5h29.1H448c16.3,0,29.1-12.8,29.1-29.1v-2.3
	C477.1,450.3,467.8,435.2,453.8,424.7z"/>
<path class="st6" d="M308.4,139.6H203.6c-9.3,0-17.5-8.1-17.5-17.5l0,0c0-9.3,8.1-17.5,17.5-17.5h104.7c9.3,0,17.5,8.1,17.5,17.5
	l0,0C325.8,131.5,317.7,139.6,308.4,139.6z"/>
<path class="st7" d="M203.6,104.7h58.2c3.5,0,5.8,2.3,5.8,5.8l0,0c0,3.5-2.3,5.8-5.8,5.8h-58.2c-3.5,0-5.8-2.3-5.8-5.8l0,0
	C197.8,107.1,200.1,104.7,203.6,104.7z"/>
<path class="st8" d="M308.4,104.7h-5.8v11.6c0,7-4.7,11.6-11.6,11.6H187.3c2.3,7,9.3,11.6,16.3,11.6h104.7c9.3,0,17.5-8.1,17.5-17.5
	S317.7,104.7,308.4,104.7z"/>
<path class="st9" d="M273.5,128h34.9c3.5,0,5.8,2.3,5.8,5.8l0,0c0,3.5-2.3,5.8-5.8,5.8h-34.9c-3.5,0-5.8-2.3-5.8-5.8l0,0
	C267.6,130.3,270,128,273.5,128z"/>
<rect x="244.4" y="139.6" class="st8" width="23.3" height="93.1"/>
<polygon class="st9" points="244.4,139.6 244.4,151.3 256,151.3 256,232.7 267.6,232.7 267.6,151.3 267.6,139.6 "/>
<circle class="st8" cx="256" cy="314.2" r="93.1"/>
<path class="st5" d="M327,254.8c14,16.3,22.1,36.1,22.1,59.3c0,51.2-41.9,93.1-93.1,93.1c-23.3,0-43.1-8.1-59.3-22.1
	c17.5,20.9,43.1,33.7,71,33.7c51.2,0,93.1-41.9,93.1-93.1C360.7,296.7,347.9,271.1,327,254.8z"/>
<circle class="st6" cx="256" cy="314.2" r="81.5"/>
<path class="st9" d="M337.5,314.2c0,45.4-36.1,81.5-81.5,81.5v11.6c51.2,0,93.1-41.9,93.1-93.1H337.5z"/>
<path class="st10" d="M256,232.7v-11.6c-51.2,0-93.1,41.9-93.1,93.1h11.6C174.5,268.8,210.6,232.7,256,232.7z"/>
<path class="st11" d="M267.6,302.5h-23.3c-7,0-11.6-4.7-11.6-11.6c0-7,4.7-11.6,11.6-11.6h34.9c7,0,11.6-4.7,11.6-11.6
	c0-7-4.7-11.6-11.6-11.6h-11.6l0,0c0-7-4.7-11.6-11.6-11.6c-7,0-11.6,4.7-11.6,11.6l0,0c-19.8,0-34.9,15.1-34.9,34.9
	s15.1,34.9,34.9,34.9h23.3c7,0,11.6,4.7,11.6,11.6s-4.7,11.6-11.6,11.6h-34.9c-7,0-11.6,4.7-11.6,11.6c0,7,4.7,11.6,11.6,11.6h11.6
	l0,0c0,7,4.7,11.6,11.6,11.6c7,0,11.6-4.7,11.6-11.6l0,0c19.8,0,34.9-15.1,34.9-34.9S287.4,302.5,267.6,302.5z"/>
</svg>
